<svg xmlns="http://www.w3.org/2000/svg" xmlns:xlink="http://www.w3.org/1999/xlink" viewBox="0 0 200 200"><defs><style>.cls-1{fill:url(#未命名的渐变_27);}.cls-2,.cls-4{fill:none;stroke:#fff;}.cls-2{stroke-linecap:round;stroke-linejoin:round;stroke-width:4px;}.cls-3{fill:#fff;}.cls-4{stroke-miterlimit:10;stroke-width:1.5px;}</style><linearGradient id="未命名的渐变_27" x1="8.07" y1="8.07" x2="208.07" y2="208.07" gradientUnits="userSpaceOnUse"><stop offset="0.06" stop-color="#153181"/><stop offset="0.37" stop-color="#112b6d"/><stop offset="0.73" stop-color="#0e275c"/><stop offset="1" stop-color="#0d2556"/></linearGradient></defs><title>icon_recbg</title><g id="图层_2" data-name="图层 2"><g id="图层_1-2" data-name="图层 1"><rect class="cls-1" width="200" height="200"/><path class="cls-2" d="M65.33,80.76S76,57.86,99,57.84C132.08,59.54,133,94.57,133,94.57s29.62-8,33.44,22.72c3.06,24.54-31.21,25.56-31.21,25.56"/><circle class="cls-3" cx="105.17" cy="86.77" r="7.8"/><circle class="cls-3" cx="83.84" cy="133.58" r="7.8"/><circle class="cls-3" cx="59" cy="105.24" r="7.8"/><circle class="cls-3" cx="44.35" cy="133.58" r="7.8"/><polyline class="cls-4" points="44.35 133.58 59 105.24 83.84 133.58 105.17 86.77"/><rect class="cls-3" x="93.55" y="120.36" width="12.1" height="24.84"/><rect class="cls-3" x="108.51" y="114.41" width="12.1" height="30.79"/><rect class="cls-3" x="123.16" y="125.71" width="12.1" height="19.49"/></g></g></svg>